<?xml version="1.0" encoding="UTF-8" ?>
<!DOCTYPE svg PUBLIC "-//W3C//DTD SVG 1.1//EN" "http://www.w3.org/Graphics/SVG/1.1/DTD/svg11.dtd">
<svg width="1024pt" height="1024pt" viewBox="0 0 1024 1024" version="1.1" xmlns="http://www.w3.org/2000/svg">
<g id="#151515ff">
</g>
<g id="#8d2722ff">
<path fill="#8d2722" opacity="1.00" d=" M 492.42 9.63 C 520.74 5.74 550.13 12.65 574.35 27.67 C 675.96 86.74 777.57 145.83 879.22 204.83 C 887.03 209.69 895.33 213.80 902.75 219.29 C 927.88 237.69 945.66 265.74 951.51 296.33 C 954.72 310.67 953.49 325.42 953.70 339.98 C 953.76 458.98 953.69 577.98 953.73 696.98 C 955.71 741.82 930.04 786.16 891.09 808.08 C 782.62 870.95 674.23 933.97 565.64 996.66 C 549.99 1004.77 532.51 1009.16 514.96 1010.29 C 497.87 1011.13 480.71 1008.14 464.61 1002.51 C 454.42 998.99 445.04 993.64 435.79 988.18 C 379.13 955.56 322.63 922.68 266.07 889.87 C 233.42 870.85 200.61 852.10 168.01 832.98 C 152.91 824.05 137.53 815.59 122.51 806.53 C 85.89 784.65 62.25 742.71 62.59 700.04 C 62.43 575.36 62.58 450.68 62.48 326.01 C 61.94 301.50 67.36 276.38 80.43 255.43 C 90.99 237.89 105.73 222.63 123.73 212.69 C 147.78 198.32 172.16 184.52 196.33 170.33 C 279.43 122.19 362.34 73.71 445.40 25.49 C 459.76 17.00 475.85 11.55 492.42 9.63 M 498.39 22.74 C 482.37 24.15 466.80 29.14 452.85 37.13 C 403.30 65.77 353.96 94.78 304.44 123.47 C 247.12 156.86 189.67 190.04 132.42 223.54 C 119.02 231.54 106.46 241.57 97.61 254.57 C 83.10 274.51 75.70 299.39 76.39 324.00 C 76.40 451.00 76.32 578.01 76.42 705.02 C 77.39 733.33 90.30 760.83 110.58 780.48 C 120.96 790.55 133.88 797.29 146.17 804.68 C 242.96 860.58 339.55 916.83 436.33 972.75 C 445.88 978.19 455.22 984.09 465.40 988.31 C 491.80 998.89 522.35 999.79 548.85 989.05 C 558.98 985.30 568.07 979.40 577.43 974.11 C 614.03 952.73 650.72 931.53 687.45 910.39 C 752.98 872.35 818.53 834.33 884.02 796.21 C 915.57 778.87 936.81 744.82 939.60 709.06 C 939.99 694.38 939.20 679.66 940.27 665.01 C 938.83 650.69 940.48 636.31 939.70 621.98 C 939.87 611.98 939.47 601.96 939.91 591.97 C 941.07 582.97 938.99 573.97 939.83 564.95 C 941.05 554.64 939.19 544.27 940.12 533.95 C 939.56 519.63 939.37 505.25 940.28 490.94 C 939.67 484.30 939.51 477.64 939.82 470.98 C 940.16 464.65 939.29 458.32 939.88 452.01 C 940.32 447.34 939.26 442.67 939.92 438.02 C 940.36 434.69 940.36 431.33 939.92 428.01 C 939.12 422.67 940.82 417.35 940.16 412.01 C 939.54 408.01 940.29 403.98 939.96 399.97 C 939.04 392.97 941.12 385.97 939.90 378.98 C 940.29 367.98 939.12 356.96 940.09 345.96 C 939.35 340.31 940.40 334.69 940.31 329.04 C 940.50 312.80 938.89 296.26 932.88 281.05 C 925.80 262.61 914.15 245.77 898.64 233.44 C 885.41 223.60 870.64 216.13 856.57 207.63 C 770.92 157.89 685.37 107.99 599.72 58.27 C 585.71 50.37 572.15 41.65 557.81 34.34 C 539.73 24.68 518.73 21.10 498.39 22.74 Z" />
</g>
<g id="#2a2a2aff">
<path fill="#2a2a2a" opacity="1.00" d=" M 498.39 22.74 C 518.73 21.10 539.73 24.68 557.81 34.34 C 572.15 41.65 585.71 50.37 599.72 58.27 C 685.37 107.99 770.92 157.89 856.57 207.63 C 870.64 216.13 885.41 223.60 898.64 233.44 C 914.15 245.77 925.80 262.61 932.88 281.05 C 938.89 296.26 940.50 312.80 940.31 329.04 C 940.40 334.69 939.35 340.31 940.09 345.96 C 939.12 356.96 940.29 367.98 939.90 378.98 C 941.12 385.97 939.04 392.97 939.96 399.97 C 940.29 403.98 939.54 408.01 940.16 412.01 C 940.82 417.35 939.12 422.67 939.92 428.01 C 940.36 431.33 940.36 434.69 939.92 438.02 C 939.26 442.67 940.32 447.34 939.88 452.01 C 939.29 458.32 940.16 464.65 939.82 470.98 C 939.51 477.64 939.67 484.30 940.28 490.94 C 939.37 505.25 939.56 519.63 940.12 533.95 C 939.19 544.27 941.05 554.64 939.83 564.95 C 938.99 573.97 941.07 582.97 939.91 591.97 C 939.47 601.96 939.87 611.98 939.70 621.98 C 940.48 636.31 938.83 650.69 940.27 665.01 C 939.20 679.66 939.99 694.38 939.60 709.06 C 936.81 744.82 915.57 778.87 884.02 796.21 C 818.53 834.33 752.98 872.35 687.45 910.39 C 650.72 931.53 614.03 952.73 577.43 974.11 C 568.07 979.40 558.98 985.30 548.85 989.05 C 522.35 999.79 491.80 998.89 465.40 988.31 C 455.22 984.09 445.88 978.19 436.33 972.75 C 339.55 916.83 242.96 860.58 146.17 804.68 C 133.88 797.29 120.96 790.55 110.58 780.48 C 90.30 760.83 77.39 733.33 76.42 705.02 C 76.32 578.01 76.40 451.00 76.39 324.00 C 75.70 299.39 83.10 274.51 97.61 254.57 C 106.46 241.57 119.02 231.54 132.42 223.54 C 189.67 190.04 247.12 156.86 304.44 123.47 C 353.96 94.78 403.30 65.77 452.85 37.13 C 466.80 29.14 482.37 24.15 498.39 22.74 M 313.07 213.03 C 304.39 220.76 299.49 232.35 299.62 243.94 C 299.54 351.62 299.64 459.31 299.53 566.99 C 299.60 571.32 299.15 575.90 301.06 579.93 C 305.05 588.42 311.54 595.36 318.26 601.77 C 322.04 605.02 322.62 610.33 322.11 615.01 C 321.13 624.27 318.58 633.35 314.82 641.87 C 311.01 650.79 306.04 659.16 302.00 667.97 C 298.90 674.55 299.87 681.98 299.61 689.02 C 299.59 715.70 299.40 742.38 299.96 769.05 C 301.28 787.52 317.43 803.62 335.93 804.77 C 344.34 805.74 352.61 802.89 359.92 798.95 C 368.98 794.05 378.00 789.02 387.46 784.90 C 398.35 794.18 408.63 804.15 419.60 813.35 C 431.25 824.10 444.29 833.16 456.77 842.89 C 454.25 820.66 452.45 798.36 450.33 776.09 C 445.39 726.75 440.67 677.38 436.08 628.01 C 434.20 604.42 431.54 580.90 429.42 557.32 C 403.23 543.54 376.81 530.15 350.54 516.51 C 349.09 515.66 347.62 514.60 347.03 512.95 C 345.20 508.18 345.74 502.96 345.67 497.97 C 345.69 482.72 345.84 467.47 345.49 452.23 C 374.41 465.90 403.67 478.84 432.73 492.22 C 448.63 499.71 464.88 506.46 480.68 514.19 C 479.53 546.28 475.28 578.54 464.43 608.90 C 466.70 611.53 469.18 613.97 471.75 616.31 C 484.03 627.47 496.18 638.78 508.91 649.44 C 523.93 636.30 539.06 623.20 552.96 608.87 C 542.60 578.70 537.56 546.81 537.12 514.96 C 538.63 513.42 540.84 512.81 542.72 511.80 C 562.50 502.65 582.37 493.69 602.14 484.49 C 594.97 455.86 587.70 427.26 580.59 398.62 C 594.72 424.23 607.95 450.33 621.79 476.10 C 638.45 468.02 655.34 460.41 672.09 452.52 C 672.12 469.67 672.08 486.82 672.12 503.97 C 672.05 507.16 671.93 510.50 670.52 513.43 C 669.50 515.45 667.32 516.41 665.46 517.49 C 656.43 522.23 647.28 526.76 638.29 531.58 C 640.93 551.09 644.38 570.48 647.17 589.97 C 638.39 573.52 630.05 556.85 621.60 540.24 C 610.40 546.12 598.90 551.53 587.91 557.77 C 587.11 561.80 587.11 565.94 586.67 570.02 C 578.07 661.11 569.59 752.22 560.85 843.30 C 577.64 831.12 593.81 818.09 609.30 804.30 C 632.50 783.49 654.38 760.96 672.53 735.55 C 687.45 715.23 699.21 692.39 705.46 667.90 C 707.46 660.34 704.36 652.87 702.28 645.71 C 699.45 635.96 696.43 626.18 695.33 616.05 C 694.81 611.47 695.30 606.24 698.86 602.91 C 705.72 596.27 712.48 589.18 716.54 580.42 C 717.84 577.82 717.87 574.85 717.89 572.01 C 717.89 519.63 717.83 467.25 717.91 414.87 C 674.24 389.57 630.42 364.52 586.69 339.32 C 511.56 296.11 436.24 253.24 361.33 209.67 C 346.97 199.62 325.91 201.17 313.07 213.03 M 742.50 428.71 C 742.53 479.14 742.40 529.57 742.56 580.00 C 763.71 567.97 784.86 555.95 805.98 543.86 C 812.95 539.81 820.32 535.89 825.40 529.43 C 833.16 519.66 836.74 506.13 833.17 493.97 C 830.77 483.92 823.89 475.21 814.95 470.13 C 790.89 456.17 766.65 442.51 742.50 428.71 Z" />
</g>
<g id="#f1eadfff">
<path fill="#f1eadf" opacity="1.00" d=" M 313.07 213.03 C 325.91 201.17 346.97 199.62 361.33 209.67 C 436.24 253.24 511.56 296.11 586.69 339.32 C 630.42 364.52 674.24 389.57 717.91 414.87 C 717.83 467.25 717.89 519.63 717.89 572.01 C 717.87 574.85 717.84 577.82 716.54 580.42 C 712.48 589.18 705.72 596.27 698.86 602.91 C 695.30 606.24 694.81 611.47 695.33 616.05 C 696.43 626.18 699.45 635.96 702.28 645.71 C 704.36 652.87 707.46 660.34 705.46 667.90 C 699.21 692.39 687.45 715.23 672.53 735.55 C 654.38 760.96 632.50 783.49 609.30 804.30 C 593.81 818.09 577.64 831.12 560.85 843.30 C 569.59 752.22 578.07 661.11 586.67 570.02 C 587.11 565.94 587.11 561.80 587.91 557.77 C 598.90 551.53 610.40 546.12 621.60 540.24 C 630.05 556.85 638.39 573.52 647.17 589.97 C 644.38 570.48 640.93 551.09 638.29 531.58 C 647.28 526.76 656.43 522.23 665.46 517.49 C 667.32 516.41 669.50 515.45 670.52 513.43 C 671.93 510.50 672.05 507.16 672.12 503.97 C 672.08 486.82 672.12 469.67 672.09 452.52 C 655.34 460.41 638.45 468.02 621.79 476.10 C 607.95 450.33 594.72 424.23 580.59 398.62 C 587.70 427.26 594.97 455.86 602.14 484.49 C 582.37 493.69 562.50 502.65 542.72 511.80 C 540.84 512.81 538.63 513.42 537.12 514.96 C 537.56 546.81 542.60 578.70 552.96 608.87 C 539.06 623.20 523.93 636.30 508.91 649.44 C 496.18 638.78 484.03 627.47 471.75 616.31 C 469.18 613.97 466.70 611.53 464.43 608.90 C 475.28 578.54 479.53 546.28 480.68 514.19 C 464.88 506.46 448.63 499.71 432.73 492.22 C 403.67 478.84 374.41 465.90 345.49 452.23 C 345.84 467.47 345.69 482.72 345.67 497.97 C 345.74 502.96 345.20 508.18 347.03 512.95 C 347.62 514.60 349.09 515.66 350.54 516.51 C 376.81 530.15 403.23 543.54 429.42 557.32 C 431.54 580.90 434.20 604.42 436.08 628.01 C 440.67 677.38 445.39 726.75 450.33 776.09 C 452.45 798.36 454.25 820.66 456.77 842.89 C 444.29 833.16 431.25 824.10 419.60 813.35 C 408.63 804.15 398.35 794.18 387.46 784.90 C 378.00 789.02 368.98 794.05 359.92 798.95 C 352.61 802.89 344.34 805.74 335.93 804.77 C 317.43 803.62 301.28 787.52 299.96 769.05 C 299.40 742.38 299.59 715.70 299.61 689.02 C 299.87 681.98 298.90 674.55 302.00 667.97 C 306.04 659.16 311.01 650.79 314.82 641.87 C 318.58 633.35 321.13 624.27 322.11 615.01 C 322.62 610.33 322.04 605.02 318.26 601.77 C 311.54 595.36 305.05 588.42 301.06 579.93 C 299.15 575.90 299.60 571.32 299.53 566.99 C 299.64 459.31 299.54 351.62 299.62 243.94 C 299.49 232.35 304.39 220.76 313.07 213.03 Z" />
</g>
<g id="#f1ebdfff">
<path fill="#f1ebdf" opacity="1.00" d=" M 742.50 428.71 C 766.65 442.51 790.89 456.17 814.95 470.13 C 823.89 475.21 830.77 483.92 833.17 493.97 C 836.74 506.13 833.16 519.66 825.40 529.43 C 820.32 535.89 812.95 539.81 805.98 543.86 C 784.86 555.95 763.71 567.97 742.56 580.00 C 742.40 529.57 742.53 479.14 742.50 428.71 Z" />
</g>
<g id="#8a8a8aff">
</g>
</svg>
